PathFileType	4	(X/Y/Z)	29_2_80_p0_0-781_filt_butterworth.trc
DataRate	CameraRate	NumFrames	NumMarkers	Units	OrigDataRate	OrigDataStartFrame	OrigNumFrames
53.0	53.0	6	27	m	53.0	292	781
Frame#	Time	RHip			RKnee			RAnkle			RBigToe			RSmallToe			RHeel			LHip			LKnee			LAnkle			LBigToe			LSmallToe			LHeel			Neck			Head			Nose			RShoulder			RElbow			RWrist			RThumb			RIndex			RPinky			LShoulder			LElbow			LWrist			LThumb			LIndex			LPinky			
		X1	Y1	Z1	X2	Y2	Z2	X3	Y3	Z3	X4	Y4	Z4	X5	Y5	Z5	X6	Y6	Z6	X7	Y7	Z7	X8	Y8	Z8	X9	Y9	Z9	X10	Y10	Z10	X11	Y11	Z11	X12	Y12	Z12	X13	Y13	Z13	X14	Y14	Z14	X15	Y15	Z15	X16	Y16	Z16	X17	Y17	Z17	X18	Y18	Z18	X19	Y19	Z19	X20	Y20	Z20	X21	Y21	Z21	X22	Y22	Z22	X23	Y23	Z23	X24	Y24	Z24	X25	Y25	Z25	X26	Y26	Z26	X27	Y27	Z27	
292	5.509433962264151	0.34966469414455736	0.6328657210198791	0.8410883197787319	0.3102171723087313	0.24394055361369044	0.7789295265969578	0.2869815301751389	-0.16711852770911817	0.7756982297007753	0.28847146366661586	-0.1610913889954501	0.6123248878052474	0.326002877621284	-0.15743663406147823	0.6345826773389749	0.26236115104126845	-0.24310241963237295	0.8262755305369699	0.13345993719319788	0.6536075205750714	0.8122403273058887	0.11803011928629079	0.25118898524986577	0.799744010779649	0.09779782861342198	-0.14686390464444887	0.7770585543334014	0.12234519657284315	-0.14891501497588294	0.6196177813995241	0.06689991659222953	-0.1562491768279502	0.6498696037374438	0.1102913262950175	-0.19296997544226763	0.7983604503014926	0.3156455273222738	1.2171838331706086	0.8644672551123783	0.400188135238802	1.4325060621876697	0.8876707809040238	0.4198146575236013	1.3353003822905827	0.8385683035081546	0.45385939661989827	1.122306778528118	0.9156627621733262	0.4214334814953974	0.9192870213608357	0.8000672802403972	0.5303886655289188	1.053624220651278	0.6533798331268015	0.5717563963273994	1.1126264756379476	0.607750877615682	0.5959880695260088	1.103514308112471	0.606958803462912	0.5737919853252154	1.0779201924282478	0.5672803692413676	0.14730403874888234	1.175167928336166	0.8409626663772509	0.10291677555212161	0.9515457015431452	0.7217512549303104	0.2542051212184641	1.1052648677678405	0.7117148975475567	0.30297467968938563	1.1668246934511488	0.7292654954280593	0.32195519072635326	1.1787872271060762	0.7317105368480425	0.3379299106116205	1.1371502520716972	0.6821130293447439	
293	5.528301886792453	0.3497033298175606	0.6324018501751473	0.8411375573097544	0.310232662818793	0.24399667148221724	0.7789428257697544	0.28697868814517935	-0.16712854204774774	0.7756917719317409	0.28832398455537345	-0.16126958646101242	0.6122067141409452	0.3260262702748603	-0.15764213414640138	0.6349961220444436	0.2623284247451677	-0.24279613703368103	0.8262357227819905	0.133486401549799	0.6535791642200258	0.812358891101115	0.11833839845024685	0.2505103333715552	0.7999407002503653	0.09780582634328683	-0.14687406458517033	0.7770571622420119	0.1223016426092553	-0.14886335536400774	0.6195079363939051	0.06688490811802364	-0.1562810287736392	0.6498859112109551	0.11037599468410028	-0.19310060821621444	0.7984943382779447	0.31676478496423405	1.216105271115977	0.8640549593592486	0.40268651829970126	1.4315618124819962	0.8846548991990406	0.421585312424577	1.3336184376813294	0.837529407980979	0.45555115300889426	1.120007268114283	0.918013666659901	0.42113603269024674	0.9174273190217839	0.7992498832474877	0.5324689817283026	1.0490342460331377	0.6542293868970981	0.5748966119367798	1.1079784296875006	0.612917708651801	0.5982421656632029	1.1017567307442475	0.6093449132110599	0.5761137705713872	1.0721658143212636	0.570736135443675	0.14908908338555532	1.1754294116770923	0.8399179788766702	0.10424306157163137	0.9522734748381918	0.722135105401049	0.25426758358941726	1.1050496891227817	0.7117775145446703	0.30381603747516284	1.1663617724103885	0.7301493965181397	0.3221740886740382	1.1797428236539662	0.7320679300552504	0.3390571371479007	1.134209004339348	0.6869505659608686	
294	5.547169811320755	0.34973123311796434	0.6320762776091463	0.8412384615606897	0.31022022680289746	0.24403990142301837	0.7789441761537768	0.2869694331799591	-0.16715019572390022	0.7757048943997958	0.28818764998039154	-0.16143556360698147	0.6121678250068993	0.3261136171697636	-0.1578282213034936	0.6353308118343464	0.26230876930589886	-0.24244784023547034	0.8262591101746924	0.13348778981806123	0.6535818017852988	0.81246893201095	0.11856516486917673	0.24997916046807514	0.8001634754070004	0.09781438704148049	-0.1468780661448698	0.7770559707036288	0.12224844442853547	-0.14878117530909707	0.6193553863048645	0.06685783587873254	-0.1562490217919711	0.6498661564775752	0.11050495136614509	-0.19317440538695302	0.7986566456248261	0.31814434543401593	1.2147798728671717	0.8636428826658373	0.40426877953026236	1.4309939426963616	0.8826329905937835	0.42304203660502415	1.332451129633599	0.8360017979496346	0.45725704228556435	1.1181785324472464	0.9204246061286505	0.42049823102130546	0.9155921629489975	0.797670069938967	0.5340993741445104	1.0442074106548198	0.6541234832225307	0.5780331480086469	1.104932671363138	0.616467026031176	0.600542857372995	1.1002000565561818	0.611683381768372	0.5786472910631596	1.0665589474626613	0.5744420127999275	0.15111478862692393	1.176039617911441	0.8376985427870486	0.1051312113884373	0.9530009673403232	0.7223802127309713	0.25412196859428726	1.1046418706063235	0.7117925012261064	0.3049099024354718	1.1665134298763844	0.730220291743663	0.3223535889982964	1.1800881527885394	0.7333176215091393	0.3402514997869758	1.1313435180651743	0.6918629354630021	
295	5.566037735849057	0.3497511788820334	0.63189453845906	0.8413943826402417	0.3101722918024617	0.24405687817454857	0.7789372395415881	0.28695805598129354	-0.16717306942026033	0.7757261230063452	0.28822467384234485	-0.16171774186716162	0.6124115272860955	0.32622923105938406	-0.15795886218681784	0.635520115300099	0.2623071715111339	-0.2421435011342606	0.8263593175008458	0.13341841781315675	0.653568867114686	0.8125519064566792	0.11868985155918109	0.24961732786601323	0.8004045932704301	0.09782327369333783	-0.14687627227582817	0.7770527282189474	0.1221992682952821	-0.14869745982614813	0.6192120924015622	0.06683398143095527	-0.1561646274228324	0.6498129949264395	0.11056339194372053	-0.1931411776263276	0.7987524368779251	0.3195805345849194	1.213442859360872	0.8633300147190544	0.4048491727598837	1.4309016895925624	0.8811858727619286	0.42415761587124	1.3316980230941002	0.8343240525569007	0.4588263199378616	1.116861122995651	0.9224401462829921	0.4197209547769375	0.9141917670555184	0.7960505816503121	0.5351055450409594	1.0398728265028443	0.6531330689291456	0.5807128870535139	1.1030213182498936	0.6185950408508767	0.6025857504175282	1.0985476396138298	0.6136022157885578	0.5807733397586693	1.0615841267049064	0.5773847465521214	0.1531400285130353	1.1769045604815591	0.8346292533469037	0.1055623412336902	0.9534662206804717	0.7228742969845598	0.2539470615337064	1.1040313906919	0.7117437960909472	0.3064064304931558	1.1670224079775973	0.7289083176459579	0.3228075394922524	1.1794278671336895	0.7350864678709219	0.3414905480027262	1.128860439398495	0.6965696332218634	
296	5.584905660377358	0.3497669633879873	0.6318178470896926	0.8415750120026462	0.3100961419344004	0.24406489249165425	0.7789123457385769	0.28697286960888896	-0.16713606418250232	0.7756788774102135	0.28836303390053714	-0.16175640411164216	0.6127263481215459	0.3261814604271772	-0.15783773619103064	0.6353901216584197	0.2623326860595335	-0.2419449954325887	0.8266085445158957	0.13326447606792655	0.6535329031142848	0.8126124219878486	0.11871084614038148	0.2494269909921863	0.8006376144733202	0.09783190221776265	-0.1468713482220967	0.7770482619606731	0.12216326014760619	-0.14863956670711775	0.6191192765350528	0.06683014414900627	-0.15605092134460494	0.6497369558447487	0.11049381600916733	-0.1930427278148087	0.7987447435073969	0.32089917796043355	1.2124252052816868	0.8631694420748102	0.4049041048725262	1.4311018539327762	0.8799127204281052	0.42496853829295933	1.3311020253994843	0.832736855766885	0.46006398322133624	1.1159508901419124	0.9236238715458638	0.41937622767756166	0.9137280406658409	0.7957961127869575	0.5357402577472168	1.0363291603086204	0.652118168674719	0.5827784562959771	1.101461994499019	0.6197283907746456	0.6040732323620162	1.0966894265859688	0.6147488518090178	0.5817028942524255	1.0572670460019815	0.5782024713622343	0.15494220821937738	1.1779079417788751	0.8311229914946383	0.10569569649535696	0.9534689489200223	0.7238939263082547	0.2538395987029505	1.1032114428539117	0.7116192582334956	0.30821367576614783	1.1675493926935767	0.7265237754410205	0.32375627151358943	1.1777856762026702	0.7371092979519411	0.34261867795074286	1.127015870384173	0.7006482850206333	
297	5.60377358490566	0.3497811570422865	0.6317886688684482	0.841737306326291	0.3100086163856105	0.24407315213611033	0.7788453457484937	0.28705421740682163	-0.16695301208029162	0.7754528949544178	0.28839222236541406	-0.16103800692220668	0.612588824506451	0.3258075591454689	-0.15728548880781093	0.6347669410548745	0.2623907978826666	-0.24182658472001695	0.8270695289153001	0.13308326320166292	0.6535047765589996	0.8126497218971551	0.11864377319272397	0.2494086713718154	0.8008241714872658	0.09783934769721243	-0.14686532967903043	0.7770445091151117	0.12215024920286616	-0.14862878678861224	0.6191193056734973	0.06684862801531494	-0.15589327865737124	0.6496311417876908	0.1103867604600053	-0.1929374890693746	0.7986701393936191	0.3219192787206766	1.2119868521761155	0.8631347202238656	0.4051317856878192	1.4312033423113784	0.8786543887021079	0.4255352473120365	1.3305055944603403	0.8311994603878068	0.46092095564557867	1.1153080385568928	0.9238791434162273	0.42002511748573423	0.9142943685288377	0.7979741916867731	0.5364910652931996	1.0332477875469102	0.6522775877450386	0.5841171898837073	1.099622102476869	0.6201745040149456	0.6048541300143405	1.0945543112953697	0.6149806240426501	0.5810719792136374	1.0534216773994445	0.5762605699624159	0.1563346294789884	1.1788806063710338	0.8277830349754799	0.10577786049489427	0.9529717696281647	0.7254725482442834	0.2537900643639837	1.1022221013424371	0.7114010981513096	0.31003065514661426	1.167927373988174	0.7237293787824748	0.325078162423174	1.1754542344225702	0.7391221172850289	0.34350574486694574	1.1258588260851843	0.7037962923252079	
